<svg width="64" height="64" xmlns="http://www.w3.org/2000/svg" version="1.1">
  <g stroke="null" fill-rule="evenodd" fill="none" stroke-width="2">
   <path stroke="currentColor" class="sign" fill="currentColor" d="m11.86497,14.53524l0,0l1.06343,-0.05843q0.38564,0 0.38564,0.22203l0,0q0,0.56093 -1.34389,0.56093l0,0q-3.42401,0 -7.29208,-2.24372q-3.86807,-2.24372 -3.86807,-4.70947l0,0q0,-3.2604 3.24871,-3.2604l0,0q0.79465,0 1.74122,0.17529l0,0q19.01316,4.87307 27.14664,4.87307l0,0q5.00162,0 5.00162,-2.18529l0,0q0,-1.5075 -3.14354,-2.52418l0,0l-3.02668,-1.18029q0,-0.28046 0.72453,-0.28046l0,0q2.18529,0 4.65104,1.93988q2.47744,1.93988 2.47744,3.8447l0,0q0,2.18529 -4.2654,2.18529l0,0l-0.22203,0q-5.78458,-0.22203 -9.59423,-1.005l0,0q-10.77451,-2.19697 -12.23527,-2.50081q-1.44907,-0.30384 -2.32552,-0.47913q-0.86477,-0.1636 -2.26709,-0.38564l0,0q-2.46575,-0.39732 -4.66272,-0.39732q-2.18529,0 -2.18529,1.18029l0,0q0,2.06843 3.78627,4.14854q3.78627,2.08011 6.20528,2.08011l-0.00001,0.00001zm16.03323,-2.13854l0,0q0,0.17529 -0.28046,0.73622l0,0l-3.52918,3.52918q-9.59423,10.71608 -9.59423,18.95473l0,0q0,1.57761 1.62436,1.57761l0,0q1.12186,0 2.69947,-0.78296l0,0l1.40232,-0.79465q0.22203,0 0.22203,0.11686l0,0q0,0.67779 -1.79965,1.37895q-1.78796,0.70116 -2.40732,0.70116l0,0q-1.51918,0 -2.36058,-1.04006q-0.84139,-1.04006 -0.84139,-3.20197q0,-2.16191 2.27877,-7.53749q2.26709,-5.38726 5.60929,-9.93312q3.33052,-4.54586 5.69109,-4.54586l0,0q1.28546,0 1.28546,0.84139l0.00002,0.00001zm12.4573,-6.11179l0,0l-1.96325,0.39732q-0.28046,0 -0.28046,-0.33889l0,0q0,-0.84139 2.16191,-0.84139q2.16191,0 3.19028,0.78296q1.04006,0.78296 1.04006,1.98662q0,1.21535 -2.52418,6.36888l0,0l-3.30714,6.78958l-3.30714,7.63097q2.30215,-2.02168 4.56924,-4.74453q2.26709,-2.72284 3.42401,-4.37057q1.14523,-1.65942 1.32052,-1.65942l0,0l0.28046,0q2.01,0 2.01,0.78296l0,0q0,-0.22203 -0.28046,0.28046l0,0q-1.56593,2.86308 -2.80465,6.90644q-1.22703,4.03168 -1.22703,5.2704l0,0q0,3.42401 1.18029,3.42401l0,0q0.38564,0 1.62436,-1.06343l0,0q0.1636,0 0.1636,0.44407l0,0q0,1.46075 -1.60099,1.46075q-1.5893,0 -2.60598,-1.62436q-1.005,-1.63604 -1.005,-3.82133q0,-2.18529 1.06343,-5.10679l0,0q-3.64604,3.70447 -6.95318,6.22865l0,0q-1.12186,3.08511 -1.12186,4.32383l0,0l0,0.28046q0.5025,0.33889 0.5025,0.56093l0,0q0,0.5025 -0.67779,0.5025l0,0q-0.32721,0 -0.60767,-0.28046l0,0q-2.97994,-3.08511 -2.97994,-3.42401q0,-0.33889 0.33889,-0.33889l0,0l0.11686,0q1.5075,-0.88814 2.52418,-1.68279l0,0q1.12186,-4.25371 3.36558,-9.41894l0,0l3.19028,-7.35051q2.13854,-4.87307 2.24372,-7.11679l0,0q0,-1.23872 -1.06343,-1.23872l-0.00002,0.00003zm-8.1919,29.10989l0,0q-0.05843,-0.28046 -0.05843,-0.80634q0,-0.53756 0.17529,-1.54256l0,0q-1.29715,0.6661 -1.51918,0.72453l0,0q0.5025,0.84139 1.40232,1.62436l0,0.00001zm31.0264,-12.56248l0,0q0,5.38726 -3.70447,14.24526l0,0q-4.14854,9.65266 -9.93312,16.32538q-5.7729,6.67272 -10.0383,6.67272l0,0q-3.70447,0 -3.70447,-3.64604l0,0q0,-4.429 6.34551,-11.49905l0,0q6.61429,-7.45568 14.40887,-11.88469l0,0q0.28046,0 -0.56093,1.005l0,0q-18.95473,15.76445 -18.95473,22.77606l0,0q0,2.68779 2.12686,2.68779l0,0q3.64604,0 8.81126,-7.07004q5.15354,-7.05836 8.83463,-15.95142q3.66941,-8.89306 3.66941,-14.10503l0,0q0,-1.96325 -0.6661,-2.69947l0,0q-7.46737,7.79458 -10.43562,13.12341l0,0q-0.95825,2.36058 -1.68279,2.36058l0,0q-1.68279,0 -1.68279,-0.95825l0,0q-0.05843,-0.56093 2.24372,-6.67272l0,0l1.56593,-4.31214q0.73622,-2.24372 0.84139,-4.48743l0,0l0,-0.23372q0,-0.60767 -0.14023,-0.72453q-0.14023,-0.11686 -0.72453,-0.11686q-0.59599,0 -0.59599,-0.28046l0,0q0,-0.5025 0.89982,-0.5025l0,0q3.58761,0 3.58761,2.69947l0,0q0,1.28546 -3.36558,9.5358l0,0q1.96325,-2.69947 5.70278,-6.70778q3.72784,-4.00831 4.67441,-4.00831l0,0q0,0.5025 -0.44407,0.89982l0,0q2.52418,0.28046 2.68779,1.12186l0,0q0.23372,1.44907 0.23372,2.40732l0.00001,-0.00003z"/>
  </g>
  <style>
    @media (prefers-color-scheme: light) {
      path.sign {
        stroke: black;
      }
    }
    @media (prefers-color-scheme: dark) {
      path.sign {
        stroke: white;
      }
    }
  </style>
</svg>